# xmcd CD database file
#
# Track frame offsets:
#	150
#	15881
#	26790
#	38934
#	54622
#	63693
#	80555
#	90949
#	107374
#	119841
#	131044
#	145218
#	155543
#	174426
#	183554
#	197501
#
# Disc length: 2803 seconds
#
# Revision: 1
# Processed by: cddbd v1.5.1PL2 Copyright (c) Steve Scherf et al.
# Submitted via: CDex 1.51
#
DISCID=d80af110
DTITLE=Various Artist - Trampske perly 5
DYEAR=1900
DGENRE=Folk
TTITLE0=Masinka
TTITLE1=Jarni tani
TTITLE2=Texaska hymna
TTITLE3=Zivot je jen nahoda
TTITLE4=Socha svobody
TTITLE5=Balicek cokolady
TTITLE6=Pisen zapadaku (Mana)
TTITLE7=Kde je moje mama
TTITLE8=Hvezda na vrbe
TTITLE9=Stara stezka
TTITLE10=Toulavej
TTITLE11=Sedmikraska
TTITLE12=Dzinova laska
TTITLE13=Hejkal
TTITLE14=Doney Gal
TTITLE15=V pondeli prohlizim koleje
EXTD=
EXTT0=
EXTT1=
EXTT2=
EXTT3=
EXTT4=
EXTT5=
EXTT6=
EXTT7=
EXTT8=
EXTT9=
EXTT10=
EXTT11=
EXTT12=
EXTT13=
EXTT14=
EXTT15=
PLAYORDER=
